<svg id="abf75595-b172-483e-bcf2-274ebc8e8eea" data-name="Ebene 1" xmlns="http://www.w3.org/2000/svg" viewBox="0 0 148 43"><defs><style>.\31 71c6ca6-b523-4130-a56c-a9f27e5391e5{fill:#70b2d9;}.\36 dde9e9c-b889-4172-9dc4-805d18e5f29a{fill:#ffe06b;}.\37 5668381-4f7b-4f87-9ad9-5ffc388073f1{fill:#ea5153;}.\35 7fdddc2-3b0e-4970-95ee-6ff66e3eaee1{fill:#706f6f;}.\34 dc29473-25d5-491d-b1cc-31cec1f0edd5{fill:#85abb9;}.\36 81e357a-f3d1-4f46-b743-6717a6aa312e{fill:#f8b34f;}.ba56f3a7-5b85-41b4-8bfb-69b1bbdf960b{fill:#fff;}.d0facfa9-73ca-4724-b380-3c0f8f5e0610{fill:none;}</style></defs><title>Andreas-Lessenich-Logo</title><polygon class="171c6ca6-b523-4130-a56c-a9f27e5391e5" points="37.63 38.34 37.63 5.18 33.15 5.18 33.15 3.27 33.15 3.27 33.15 38.34 37.63 38.34"/><rect class="6dde9e9c-b889-4172-9dc4-805d18e5f29a" x="4.47" y="33.85" width="33.16" height="4.49"/><polygon class="75668381-4f7b-4f87-9ad9-5ffc388073f1" points="8.94 5.18 4.47 5.18 4.47 38.34 8.94 38.34 8.94 4.06 8.94 4.06 8.94 5.18"/><rect class="57fdddc2-3b0e-4970-95ee-6ff66e3eaee1" x="51.33" y="30.34" width="62.85" height="10.25"/><rect class="4dc29473-25d5-491d-b1cc-31cec1f0edd5" x="33.15" y="33.86" width="4.49" height="4.49"/><polygon class="57fdddc2-3b0e-4970-95ee-6ff66e3eaee1" points="39.87 40.58 2.23 40.58 2.23 2.94 8.94 2.94 8.94 5.18 4.47 5.18 4.47 38.34 37.63 38.34 37.63 5.18 33.15 5.18 33.15 2.94 39.87 2.94 39.87 40.58"/><rect class="681e357a-f3d1-4f46-b743-6717a6aa312e" x="4.46" y="33.85" width="4.48" height="4.48"/><circle class="57fdddc2-3b0e-4970-95ee-6ff66e3eaee1" cx="21.12" cy="12.1" r="2.35"/><path class="171c6ca6-b523-4130-a56c-a9f27e5391e5" d="M102.5,80.25l1.45-9.6h3V84.17h-2v-9.7l-1.47,9.7h-2l-1.59-9.56v9.56H98V70.65h3Z" transform="translate(-46.62 -56.19)"/><path class="171c6ca6-b523-4130-a56c-a9f27e5391e5" d="M115.8,84.17h-2.14l-.37-2.45h-2.61l-.37,2.45h-2l2.17-13.52h3.11ZM111,79.89h2L112,73Z" transform="translate(-46.62 -56.19)"/><path class="171c6ca6-b523-4130-a56c-a9f27e5391e5" d="M117.27,70.65h2.13V82.24h3.5v1.93h-5.62Z" transform="translate(-46.62 -56.19)"/><path class="171c6ca6-b523-4130-a56c-a9f27e5391e5" d="M126.43,76.35h2.92v1.93h-2.92v4h3.67v1.93H124.3V70.65h5.79v1.93h-3.67Z" transform="translate(-46.62 -56.19)"/><path class="171c6ca6-b523-4130-a56c-a9f27e5391e5" d="M136.34,84.17a4.17,4.17,0,0,1-.19-1.66V80.39c0-1.26-.43-1.72-1.39-1.72H134v5.51H131.9V70.65h3.21c2.2,0,3.15,1,3.15,3.11v1.06a2.69,2.69,0,0,1-1.39,2.74c1.06.44,1.41,1.47,1.41,2.88v2.09a4,4,0,0,0,.23,1.64ZM134,72.58v4.15h.83c.79,0,1.28-.35,1.28-1.43V74c0-1-.33-1.39-1.08-1.39Z" transform="translate(-46.62 -56.19)"/><path class="57fdddc2-3b0e-4970-95ee-6ff66e3eaee1" d="M144.65,80.25l1.45-9.6h3V84.17h-2v-9.7l-1.47,9.7h-2L142,74.61v9.56h-1.85V70.65h3Z" transform="translate(-46.62 -56.19)"/><path class="57fdddc2-3b0e-4970-95ee-6ff66e3eaee1" d="M153.2,76.35h2.92v1.93H153.2v4h3.67v1.93h-5.8V70.65h5.8v1.93H153.2Z" transform="translate(-46.62 -56.19)"/><path class="57fdddc2-3b0e-4970-95ee-6ff66e3eaee1" d="M158.67,70.65h2.13V84.17h-2.13Z" transform="translate(-46.62 -56.19)"/><path class="57fdddc2-3b0e-4970-95ee-6ff66e3eaee1" d="M165.68,70.5c2.07,0,3.13,1.24,3.13,3.4v.43h-2v-.56c0-1-.39-1.33-1.06-1.33s-1.06.37-1.06,1.33c0,2.78,4.16,3.3,4.16,7.17,0,2.16-1.08,3.4-3.17,3.4s-3.17-1.24-3.17-3.4V80.1h2v1c0,1,.43,1.31,1.1,1.31s1.1-.35,1.1-1.31c0-2.78-4.15-3.3-4.15-7.17C162.55,71.73,163.62,70.5,165.68,70.5Z" transform="translate(-46.62 -56.19)"/><path class="57fdddc2-3b0e-4970-95ee-6ff66e3eaee1" d="M169.91,70.65h6.57v1.93h-2.22V84.17h-2.13V72.58h-2.22Z" transform="translate(-46.62 -56.19)"/><path class="57fdddc2-3b0e-4970-95ee-6ff66e3eaee1" d="M180,76.35h2.92v1.93H180v4h3.67v1.93h-5.8V70.65h5.8v1.93H180Z" transform="translate(-46.62 -56.19)"/><path class="57fdddc2-3b0e-4970-95ee-6ff66e3eaee1" d="M189.93,84.17a4.19,4.19,0,0,1-.19-1.66V80.39c0-1.26-.43-1.72-1.39-1.72h-.73v5.51h-2.12V70.65h3.21c2.21,0,3.15,1,3.15,3.11v1.06a2.69,2.69,0,0,1-1.39,2.74c1.06.44,1.41,1.47,1.41,2.88v2.09a4,4,0,0,0,.23,1.64Zm-2.32-11.59v4.15h.83c.79,0,1.27-.35,1.27-1.43V74c0-1-.33-1.39-1.08-1.39Z" transform="translate(-46.62 -56.19)"/><path class="ba56f3a7-5b85-41b4-8bfb-69b1bbdf960b" d="M103.81,94.48c0,.09,0,.14-.28.14l-.38,0-.34-1.42h-1.39l-.31,1.31c0,.09,0,.13-.3.13l-.4,0,1.43-5.51c0-.08.1-.11.24-.11l.3,0Zm-1.14-1.89-.27-1.15a11.88,11.88,0,0,1-.28-1.55c0,.38-.16,1-.29,1.55l-.27,1.15Z" transform="translate(-46.62 -56.19)"/><path class="ba56f3a7-5b85-41b4-8bfb-69b1bbdf960b" d="M105,90.78a3.6,3.6,0,0,1,1.27-.27c.84,0,1.12.3,1.12,1.07v2.88c0,.13,0,.13-.66.13V91.78c0-.51-.08-.71-.48-.71a1.35,1.35,0,0,0-.6.14v3.25c0,.13,0,.13-.65.13Z" transform="translate(-46.62 -56.19)"/><path class="ba56f3a7-5b85-41b4-8bfb-69b1bbdf960b" d="M110.66,89c0-.3.12-.3.65-.3v5.73a2.69,2.69,0,0,1-1.15.24c-.7,0-1.3-.2-1.3-1.94,0-1.59.54-2.23,1.23-2.23a.91.91,0,0,1,.58.16Zm0,2.17a.55.55,0,0,0-.37-.1c-.36,0-.72.28-.72,1.59s.23,1.43.61,1.43a.85.85,0,0,0,.48-.12Z" transform="translate(-46.62 -56.19)"/><path class="ba56f3a7-5b85-41b4-8bfb-69b1bbdf960b" d="M112.82,90.87a1.9,1.9,0,0,1,1.09-.36c.41,0,.56.12.56.34a1.12,1.12,0,0,1-.07.38.79.79,0,0,0-.38-.1.86.86,0,0,0-.54.18v3.16c0,.13,0,.13-.65.13Z" transform="translate(-46.62 -56.19)"/><path class="ba56f3a7-5b85-41b4-8bfb-69b1bbdf960b" d="M117.78,93.79a1.63,1.63,0,0,1,.06.44c0,.25-.5.44-1.11.44s-1.28-.3-1.28-1.87c0-2,.71-2.29,1.42-2.29s1,.42,1,1.28a5.17,5.17,0,0,1-.09,1,10,10,0,0,1-1.68.13c0,.87.27,1.09.75,1.09A1.83,1.83,0,0,0,117.78,93.79Zm-1.67-1.35a4.58,4.58,0,0,0,1.11-.09,2.6,2.6,0,0,0,0-.48c0-.59-.11-.79-.46-.79S116.17,91.35,116.11,92.44Z" transform="translate(-46.62 -56.19)"/><path class="ba56f3a7-5b85-41b4-8bfb-69b1bbdf960b" d="M121.44,91.91c0,.92,0,1.88,0,2.49a2.23,2.23,0,0,1-1.15.27c-.57,0-1.11-.14-1.11-1.22s.53-1.31,1.07-1.31a1.44,1.44,0,0,1,.59.1v-.63c0-.38-.18-.48-.5-.48a3.12,3.12,0,0,0-1.07.18.81.81,0,0,1-.09-.38.26.26,0,0,1,.09-.22,2.88,2.88,0,0,1,1.22-.22c.68,0,1,.26,1,1Zm-1,.71c-.33,0-.61.11-.61.82s.22.69.54.69a.72.72,0,0,0,.43-.13c0-.27,0-.86,0-1.3A.89.89,0,0,0,120.41,92.63Z" transform="translate(-46.62 -56.19)"/><path class="ba56f3a7-5b85-41b4-8bfb-69b1bbdf960b" d="M123.25,92.3a1.05,1.05,0,0,1-.46-.85c0-.56.42-.94,1.31-.94s1,.29,1,.45a.57.57,0,0,1-.14.33,1.42,1.42,0,0,0-.79-.22c-.38,0-.63.14-.63.39s0,.27.32.5l.74.6a1.25,1.25,0,0,1,.48,1c0,.71-.51,1.11-1.33,1.11-.57,0-1-.14-1-.4a.69.69,0,0,1,.12-.38,1.5,1.5,0,0,0,.79.19c.42,0,.66-.17.66-.49A.78.78,0,0,0,124,93Z" transform="translate(-46.62 -56.19)"/><path class="ba56f3a7-5b85-41b4-8bfb-69b1bbdf960b" d="M130.55,94v.48c0,.1,0,.13-.13.13h-1.9V89.17c0-.18,0-.18.65-.18v5Z" transform="translate(-46.62 -56.19)"/><path class="ba56f3a7-5b85-41b4-8bfb-69b1bbdf960b" d="M134.06,93.79a1.63,1.63,0,0,1,.06.44c0,.25-.51.44-1.11.44s-1.28-.3-1.28-1.87c0-2,.71-2.29,1.42-2.29s1,.42,1,1.28a5.33,5.33,0,0,1-.09,1,10,10,0,0,1-1.68.13c0,.87.26,1.09.75,1.09A1.83,1.83,0,0,0,134.06,93.79Zm-1.67-1.35a4.57,4.57,0,0,0,1.11-.09,2.3,2.3,0,0,0,0-.48c0-.59-.11-.79-.46-.79S132.45,91.35,132.39,92.44Z" transform="translate(-46.62 -56.19)"/><path class="ba56f3a7-5b85-41b4-8bfb-69b1bbdf960b" d="M135.89,92.3a1,1,0,0,1-.46-.85c0-.56.42-.94,1.31-.94s1,.29,1,.45a.58.58,0,0,1-.14.33,1.43,1.43,0,0,0-.79-.22c-.38,0-.63.14-.63.39s0,.27.32.5l.74.6a1.25,1.25,0,0,1,.48,1c0,.71-.51,1.11-1.33,1.11-.57,0-1-.14-1-.4a.71.71,0,0,1,.12-.38,1.5,1.5,0,0,0,.79.19c.42,0,.66-.17.66-.49a.78.78,0,0,0-.32-.63Z" transform="translate(-46.62 -56.19)"/><path class="ba56f3a7-5b85-41b4-8bfb-69b1bbdf960b" d="M139.46,92.3a1.05,1.05,0,0,1-.46-.85c0-.56.42-.94,1.31-.94s1,.29,1,.45a.57.57,0,0,1-.14.33,1.43,1.43,0,0,0-.79-.22c-.38,0-.63.14-.63.39s0,.27.32.5l.74.6a1.25,1.25,0,0,1,.48,1c0,.71-.51,1.11-1.33,1.11-.57,0-1-.14-1-.4a.71.71,0,0,1,.12-.38,1.5,1.5,0,0,0,.79.19c.42,0,.66-.17.66-.49a.78.78,0,0,0-.32-.63Z" transform="translate(-46.62 -56.19)"/><path class="ba56f3a7-5b85-41b4-8bfb-69b1bbdf960b" d="M144.89,93.79a1.71,1.71,0,0,1,.06.44c0,.25-.51.44-1.11.44s-1.28-.3-1.28-1.87c0-2,.71-2.29,1.42-2.29s1,.42,1,1.28a5.18,5.18,0,0,1-.09,1,10,10,0,0,1-1.68.13c0,.87.27,1.09.75,1.09A1.82,1.82,0,0,0,144.89,93.79Zm-1.67-1.35a4.56,4.56,0,0,0,1.11-.09,2.3,2.3,0,0,0,0-.48c0-.59-.11-.79-.46-.79S143.28,91.35,143.23,92.44Z" transform="translate(-46.62 -56.19)"/><path class="ba56f3a7-5b85-41b4-8bfb-69b1bbdf960b" d="M146.37,90.78a3.61,3.61,0,0,1,1.27-.27c.84,0,1.12.3,1.12,1.07v2.88c0,.13,0,.13-.66.13V91.78c0-.51-.08-.71-.48-.71a1.34,1.34,0,0,0-.6.14v3.25c0,.13,0,.13-.65.13Z" transform="translate(-46.62 -56.19)"/><path class="ba56f3a7-5b85-41b4-8bfb-69b1bbdf960b" d="M150.82,89.05c.25,0,.33.13.33.45s-.12.53-.37.53-.33-.12-.33-.48S150.57,89.05,150.82,89.05Zm.31,5.41c0,.13,0,.13-.65.13V90.89c0-.3.13-.3.65-.3Z" transform="translate(-46.62 -56.19)"/><path class="ba56f3a7-5b85-41b4-8bfb-69b1bbdf960b" d="M154.58,91.23a1.24,1.24,0,0,0-.57-.15c-.37,0-.8.18-.8,1.61,0,1.13.23,1.41.72,1.41a1.18,1.18,0,0,0,.64-.18,1.36,1.36,0,0,1,.06.35c0,.22-.37.41-.9.41-.77,0-1.19-.3-1.19-2,0-1.92.78-2.17,1.43-2.17.38,0,.67.15.67.36A1,1,0,0,1,154.58,91.23Z" transform="translate(-46.62 -56.19)"/><path class="ba56f3a7-5b85-41b4-8bfb-69b1bbdf960b" d="M156,89c0-.3.11-.3.64-.3v2.12a1.42,1.42,0,0,1,.91-.31c.7,0,.83.38.83,1.06v2.9c0,.13,0,.13-.66.13V91.74c0-.35-.07-.63-.47-.63a1,1,0,0,0-.61.22v3.14c0,.13,0,.13-.64.13Z" transform="translate(-46.62 -56.19)"/><rect id="edf752a3-13b4-4126-a36b-12ac140da482" data-name="&lt;Slice&gt;" class="d0facfa9-73ca-4724-b380-3c0f8f5e0610" width="148" height="43"/></svg>